HIERARCHY
ROOT Hips
{
  OFFSET 14.6157 62.3436 -181.288
  CHANNELS 6 Xposition Yposition Zposition Zrotation Xrotation Yrotation
  JOINT RightUpLeg
  {
    OFFSET -8.9458 -8.66707 0.101652
    CHANNELS 3 Zrotation Xrotation Yrotation
    JOINT RightLeg
    {
      OFFSET 0 -44.4227 1.3727
      CHANNELS 3 Zrotation Xrotation Yrotation
      JOINT RightFoot
      {
        OFFSET 0.253549 -42.0924 -1.46059
        CHANNELS 3 Zrotation Xrotation Yrotation
        JOINT RightToes
        {
          OFFSET 0.04 -4.41509 8.4991
          CHANNELS 3 Zrotation Xrotation Yrotation
          End Site
          {
            OFFSET -0.08 -0.137448 9.77979
          }
        }
      }
    }
  }
  JOINT Spine
  {
    OFFSET 0 11.8905 0
    CHANNELS 3 Zrotation Xrotation Yrotation
    JOINT Spine1
    {
      OFFSET 0 25.6574 0.127663
      CHANNELS 3 Zrotation Xrotation Yrotation
      JOINT HEad
      {
        OFFSET 0 8.73416 0.011341
        CHANNELS 3 Zrotation Xrotation Yrotation
        End Site
        {
          OFFSET -0.29 12.7742 2.51395
        }
      }
      JOINT LeftShoulder1
      {
        OFFSET 8.99 -0.362252 -0.22
        CHANNELS 3 Zrotation Xrotation Yrotation
        JOINT LeftArm
        {
          OFFSET 10.2827 -0.00338 0.322123
          CHANNELS 3 Zrotation Xrotation Yrotation
          JOINT LeftForeArm
          {
            OFFSET 32.7669 0.099144 -1.42434
            CHANNELS 3 Zrotation Xrotation Yrotation
            JOINT LeftHand
            {
              OFFSET 27.5643 0.085362 1.02216
              CHANNELS 3 Zrotation Xrotation Yrotation
              End Site
              {
                OFFSET 16.7443 -0.6 1.50291
              }
            }
          }
        }
      }
      JOINT RightShoulder
      {
        OFFSET -8.99 -0.362252 -0.22
        CHANNELS 3 Zrotation Xrotation Yrotation
        JOINT RightArm
        {
          OFFSET -10.2827 -0.00338 0.322123
          CHANNELS 3 Zrotation Xrotation Yrotation
          JOINT RightForeArm
          {
            OFFSET -32.8971 0.099144 -1.42434
            CHANNELS 3 Zrotation Xrotation Yrotation
            JOINT RightHand
            {
              OFFSET -27.4921 0.085362 1.02216
              CHANNELS 3 Zrotation Xrotation Yrotation
              End Site
              {
                OFFSET -16.6312 -0.6 1.50291
              }
            }
          }
        }
      }
    }
  }
  JOINT LeftUpLeg
  {
    OFFSET 8.9458 -8.66707 0.101652
    CHANNELS 3 Zrotation Xrotation Yrotation
    JOINT LeftLeg
    {
      OFFSET 0 -44.4227 1.3727
      CHANNELS 3 Zrotation Xrotation Yrotation
      JOINT LeftFoot
      {
        OFFSET -0.253549 -42.0924 -1.46059
        CHANNELS 3 Zrotation Xrotation Yrotation
        JOINT LeftToes
        {
          OFFSET -0.04 -4.41509 8.4991
          CHANNELS 3 Zrotation Xrotation Yrotation
          End Site
          {
            OFFSET 0.08 -0.047448 9.77979
          }
        }
      }
    }
  }
}
MOTION
Frames:	10
Frame Time:	0.0166667
15.8112 63.3654 -178.362 -4.94213 -16.3743 -37.6454 -31.0537 -33.5159 -3.36606 152.902 69.0603 -134.414 10.6859 5.40096 -1.49832 0.0462048 0.000533403 0.662642 3.14355 13.209 4.68541 -5.0372e-012 -5.55446e-009 1.14818e-012 -26.5946 29.9218 31.8004 -7.95139e-016 -1.59028e-015 -3.18055e-015 -111.295 -51.0756 -51.8847 -3.85946 62.8527 -117.234 37.8288 10.2454 -24.7295 29.8367 11.6258 0.663133 40.7172 11.5901 54.3086 32.2226 45.1371 81.5141 -40.0752 12.6369 24.8956 46.9161 -40.9686 21.0299 -8.88277 69.8288 2.50212 -24.482 0.919391 -0.478284 -1.33249e-009 1.56008e-007 -4.84539e-009 
15.1516 62.9504 -179.596 -4.95398 -17.6328 -37.4356 -31.4782 -33.2827 -4.87006 157.852 68.5112 -139.788 10.6705 5.54538 -1.62403 0.0462048 0.000533403 0.662642 3.11493 14.1398 4.15189 -5.03879e-012 -5.55446e-009 1.13228e-012 -28.8189 30.9468 33.1278 -3.18055e-015 0 -3.18055e-015 -111.187 -50.7395 -51.1101 -3.52627 62.6494 -118.338 37.8687 10.84 -24.1051 29.9362 11.797 0.358156 40.0984 12.0568 54.6468 31.5651 44.6261 83.0977 -39.7396 12.6421 24.507 44.9799 -40.9216 25.5826 9.02072 69.8398 -16.1938 -24.2893 0.249925 -0.749803 -1.33249e-009 1.56008e-007 -4.84538e-009 
14.6157 62.3436 -181.288 -4.97396 -18.7728 -37.7232 -31.6543 -33.8018 -6.54899 163.018 67.8171 -145.874 10.4107 5.73844 -1.6698 0.0462048 0.000533403 0.662642 3.0468 15.05 3.63901 -5.038e-012 -5.55445e-009 1.13864e-012 -30.8496 31.7274 34.3994 -7.95139e-016 -7.95139e-016 -3.18055e-015 -111.101 -50.428 -50.6259 -3.29582 62.35 -119.256 38.0714 11.3866 -23.4529 30.0482 11.8897 0.218338 39.6344 12.4468 55.095 31.1548 44.1065 84.2313 -39.3994 12.6165 23.8795 42.3051 -40.8619 28.5103 24.0478 67.4998 -30.8919 -25.1939 -0.0133359 -0.919003 -1.33249e-009 1.56008e-007 -4.84538e-009 
14.1775 61.811 -183.151 -5.01096 -19.8122 -38.2733 -31.2465 -33.5828 -7.91807 166.713 68.0088 -150.967 9.97198 5.84888 -1.62715 0.0462048 0.000533403 0.662642 2.96262 15.9381 3.1406 -5.03879e-012 -5.55446e-009 1.13864e-012 -32.67 32.2798 35.5982 -7.95139e-016 0 -0 -111.036 -50.1807 -50.3842 -3.13394 61.9817 -119.999 38.2513 11.8333 -22.9302 30.1972 11.9041 0.209808 39.2882 12.7814 55.6008 30.9675 43.5956 84.9288 -39.2354 12.5434 23.4782 38.9872 -40.6768 29.7018 34.0565 64.0133 -39.7662 -26.6505 -0.0673542 -1.02542 -1.33249e-009 1.56008e-007 -4.84539e-009 
13.7911 61.6012 -184.848 -5.0767 -20.7796 -38.7968 -30.458 -32.3323 -8.56259 168.578 69.1083 -154.328 9.6679 5.80847 -1.54105 0.0462048 0.000533403 0.662642 2.88944 16.8048 2.64356 -5.03879e-012 -5.55446e-009 1.14182e-012 -34.2713 32.6252 36.7153 -1.59028e-015 1.59028e-015 -6.36111e-015 -110.977 -50.0303 -50.3112 -2.99032 61.5732 -120.628 38.5271 12.1881 -22.4336 30.4082 11.857 0.286179 39.0135 13.0782 56.126 30.9611 43.1111 85.2347 -39.1152 12.4201 23.0348 35.1137 -40.1747 29.1974 40.1057 60.3715 -44.1657 -28.4836 -0.14992 -1.14599 -1.33249e-009 1.56008e-007 -4.84538e-009 
13.4128 61.7069 -186.366 -5.19107 -21.6842 -39.2856 -29.4499 -30.3546 -8.48723 168.813 70.8009 -156.01 9.57826 5.66713 -1.43825 0.0462048 0.000533403 0.662642 2.85463 17.6522 2.13198 -5.0372e-012 -5.55446e-009 1.13864e-012 -35.6519 32.7886 37.7496 8.82781e-032 -1.59028e-015 3.18055e-015 -110.894 -49.9988 -50.3145 -2.80471 61.1562 -121.235 38.7868 12.435 -22.0281 30.6976 11.7741 0.400133 38.7704 13.3478 56.6316 31.0859 42.6785 85.2271 -39.1329 12.2442 22.8218 31.0086 -39.1975 27.2242 43.4061 57.0853 -45.4185 -30.4683 -0.265095 -1.27387 -1.33249e-009 1.56008e-007 -4.84539e-009 
13.0525 62.0802 -187.673 -5.35052 -22.5607 -39.7336 -28.7366 -29.01 -8.38606 169.089 71.8705 -157.587 9.53785 5.57451 -1.34333 0.0462048 0.000533403 0.662642 2.87264 18.4793 1.58966 -5.038e-012 -5.55446e-009 1.14182e-012 -36.8258 32.7918 38.7141 -2.64834e-031 -1.59028e-015 -9.54166e-015 -110.717 -50.1154 -50.2713 -2.47275 60.7545 -122.011 39.1149 12.66 -21.7278 31.1598 11.6308 0.483813 38.471 13.6135 57.05 31.3534 42.3117 84.9649 -39.3352 11.9195 22.7692 27.2375 -37.7277 24.2615 43.3856 55.8606 -44.3945 -30.9559 -0.433809 -1.3244 -1.33249e-009 1.56008e-007 -4.84539e-009 
12.7269 62.5992 -188.759 -5.54093 -23.4254 -40.1427 -28.2396 -28.156 -8.21976 169.451 72.5776 -159.128 9.56812 5.50165 -1.2606 0.0462048 0.000533403 0.662642 2.93553 19.2759 1.02461 -5.03879e-012 -5.55445e-009 1.14182e-012 -37.7983 32.6601 39.6087 7.95139e-016 -1.59028e-015 -3.18055e-015 -110.444 -50.3603 -50.1204 -1.99543 60.3884 -122.953 39.4635 12.6952 -21.3528 31.6549 11.5089 0.547911 38.2134 13.8306 57.3711 31.684 42.0445 84.5572 -39.4348 11.701 22.7731 24.7069 -36.2122 22.009 41.9107 55.7171 -43.1242 -30.4956 -0.585377 -1.31794 -1.33249e-009 1.56008e-007 -4.84539e-009 
12.4374 63.258 -189.645 -5.75275 -24.2855 -40.5088 -27.611 -26.7649 -7.07863 166.955 73.6651 -157.696 9.69025 5.35098 -1.17464 0.0462048 0.000533403 0.662642 3.04256 20.0334 0.437464 -5.03959e-012 -5.55446e-009 1.13228e-012 -38.5786 32.414 40.4334 2.38542e-015 1.59028e-015 -0 -110.094 -50.7082 -49.8352 -1.37571 60.0702 -124.067 39.8632 12.7157 -21.0856 32.1469 11.4175 0.585158 38.0056 14.005 57.5754 32.0211 41.8842 84.1044 -39.6661 11.4038 22.8929 23.3078 -34.709 20.364 39.0179 56.3551 -41.198 -29.3854 -0.714304 -1.27542 -1.33249e-009 1.56008e-007 -4.84538e-009 
12.1345 63.9962 -190.417 -5.98886 -25.1227 -40.8279 -26.8826 -25.026 -5.10629 161.388 74.8183 -153.116 9.88901 5.16917 -1.11235 0.0462048 0.000533403 0.662642 3.21034 20.7384 -0.174291 -5.0372e-012 -5.55446e-009 1.13546e-012 -39.1686 32.068 41.1842 1.59028e-015 0 3.18055e-015 -109.699 -51.1318 -49.4309 -0.642997 59.8054 -125.313 40.2837 12.6298 -20.7805 32.5956 11.3635 0.594031 37.8725 14.1441 57.6766 32.3244 41.8289 83.6671 -39.835 11.1965 23.0102 22.6234 -33.1669 19.0123 36.3857 56.1164 -39.2801 -29.3351 -0.801421 -1.28106 -1.33249e-009 1.56008e-007 -4.84539e-009 
